# xmcd
#
# Track frame offsets:
# 150
# 19310
# 32932
# 50917
# 65301
# 81370
# 94945
# 109096
# 125445
# 141514
# 157091
# 170000
# 186856
# 201706
# 212548
# 231653
# 246476
# 261426
# 277205
# 290255
# 306157
#
# Disc length: 4297 seconds
#
# Revision: 0
# Processed by: cddbd v1.4PL0 Copyright (c) Steve Scherf et al.
# Submitted via: Axialis_AX_CDPlayer 2.6
#
DISCID=5f10c715
DTITLE=Alabama - For the record - Disc 2
DYEAR=1900
DGENRE=
TTITLE0=You've got the touch
TTITLE1=Face to face
TTITLE2=Falling again
TTITLE3=South of the south
TTITLE4=If I had you
TTITLE5=High cotton
TTITLE6=Southern star
TTITLE7=Jukebox in my mind
TTITLE8=Forever as far as I'll go
TTITLE9=Down home
TTITLE10=Here we are again
TTITLE11=Then again
TTITLE12=Born country
TTITLE13=I'm in a hurry
TTITLE14=One upon a lifetime
TTITLE15=Hometown honeymoon
TTITLE16=Reckless
TTITLE17=Give me one more shot
TTITLE18=She ain't your ordinary girl
TTITLE19=In pictures
TTITLE20=Sad looking moon
EXTD=
EXTT0=
EXTT1=
EXTT2=
EXTT3=
EXTT4=
EXTT5=
EXTT6=
EXTT7=
EXTT8=
EXTT9=
EXTT10=
EXTT11=
EXTT12=
EXTT13=
EXTT14=
EXTT15=
EXTT16=
EXTT17=
EXTT18=
EXTT19=
EXTT20=
PLAYORDER=
